<svg xmlns="http://www.w3.org/2000/svg" viewBox="0 0 820 500" font-family="'Segoe UI', Arial, sans-serif">

  <!-- Background -->
  <rect width="820" height="500" fill="#ffffff" rx="8"/>

  <!-- Plot area background -->
  <rect x="75" y="70" width="705" height="365" fill="#f8fafc" rx="4"/>

  <!-- Horizontal grid lines -->
  <line x1="75" y1="422" x2="780" y2="422" stroke="#e2e8f0" stroke-width="1"/>
  <line x1="75" y1="370" x2="780" y2="370" stroke="#e2e8f0" stroke-width="1"/>
  <line x1="75" y1="266" x2="780" y2="266" stroke="#e2e8f0" stroke-width="1"/>
  <line x1="75" y1="213" x2="780" y2="213" stroke="#e2e8f0" stroke-width="1"/>
  <line x1="75" y1="161" x2="780" y2="161" stroke="#e2e8f0" stroke-width="1"/>
  <line x1="75" y1="109" x2="780" y2="109" stroke="#e2e8f0" stroke-width="1"/>
  <!-- Zero line -->
  <line x1="75" y1="318" x2="780" y2="318" stroke="#94a3b8" stroke-width="1.2" stroke-dasharray="6,4"/>

  <!-- Vertical grid lines -->
  <line x1="75"  y1="70" x2="75"  y2="435" stroke="#e2e8f0" stroke-width="1"/>
  <line x1="146" y1="70" x2="146" y2="435" stroke="#e2e8f0" stroke-width="1"/>
  <line x1="216" y1="70" x2="216" y2="435" stroke="#e2e8f0" stroke-width="1"/>
  <line x1="287" y1="70" x2="287" y2="435" stroke="#e2e8f0" stroke-width="1"/>
  <line x1="357" y1="70" x2="357" y2="435" stroke="#e2e8f0" stroke-width="1"/>
  <line x1="428" y1="70" x2="428" y2="435" stroke="#e2e8f0" stroke-width="1"/>
  <line x1="498" y1="70" x2="498" y2="435" stroke="#e2e8f0" stroke-width="1"/>
  <line x1="569" y1="70" x2="569" y2="435" stroke="#e2e8f0" stroke-width="1"/>
  <line x1="639" y1="70" x2="639" y2="435" stroke="#e2e8f0" stroke-width="1"/>
  <line x1="710" y1="70" x2="710" y2="435" stroke="#e2e8f0" stroke-width="1"/>
  <line x1="780" y1="70" x2="780" y2="435" stroke="#e2e8f0" stroke-width="1"/>

  <!-- Shaded area between curves -->
  <polygon
    points="75,424 146,382 216,337 287,292 357,254 428,215 498,191 569,155 639,127 710,98 780,77
            780,109 710,114 639,140 569,168 498,202 428,226 357,265 287,304 216,325 146,370 75,409"
    fill="#2563eb" fill-opacity="0.10"/>

  <!-- Conventional line -->
  <polyline
    points="75,409 146,370 216,325 287,304 357,265 428,226 498,202 569,168 639,140 710,114 780,109"
    fill="none" stroke="#ef4444" stroke-width="2" stroke-dasharray="8,5" stroke-linejoin="round"/>

  <!-- Morphed line -->
  <polyline
    points="75,424 146,382 216,337 287,292 357,254 428,215 498,191 569,155 639,127 710,98 780,77"
    fill="none" stroke="#2563eb" stroke-width="2.5" stroke-linejoin="round"/>

  <!-- Data points - Morphed -->
  <circle cx="75"  cy="424" r="4.5" fill="#2563eb" stroke="#fff" stroke-width="1.5"/>
  <circle cx="146" cy="382" r="4.5" fill="#2563eb" stroke="#fff" stroke-width="1.5"/>
  <circle cx="216" cy="337" r="4.5" fill="#2563eb" stroke="#fff" stroke-width="1.5"/>
  <circle cx="287" cy="292" r="4.5" fill="#2563eb" stroke="#fff" stroke-width="1.5"/>
  <circle cx="357" cy="254" r="4.5" fill="#2563eb" stroke="#fff" stroke-width="1.5"/>
  <circle cx="428" cy="215" r="4.5" fill="#2563eb" stroke="#fff" stroke-width="1.5"/>
  <circle cx="498" cy="191" r="4.5" fill="#2563eb" stroke="#fff" stroke-width="1.5"/>
  <circle cx="569" cy="155" r="4.5" fill="#2563eb" stroke="#fff" stroke-width="1.5"/>
  <circle cx="639" cy="127" r="4.5" fill="#2563eb" stroke="#fff" stroke-width="1.5"/>
  <circle cx="710" cy="98"  r="4.5" fill="#2563eb" stroke="#fff" stroke-width="1.5"/>
  <circle cx="780" cy="77"  r="4.5" fill="#2563eb" stroke="#fff" stroke-width="1.5"/>

  <!-- Data points - Conventional -->
  <circle cx="75"  cy="409" r="4" fill="#fff" stroke="#ef4444" stroke-width="2"/>
  <circle cx="146" cy="370" r="4" fill="#fff" stroke="#ef4444" stroke-width="2"/>
  <circle cx="216" cy="325" r="4" fill="#fff" stroke="#ef4444" stroke-width="2"/>
  <circle cx="287" cy="304" r="4" fill="#fff" stroke="#ef4444" stroke-width="2"/>
  <circle cx="357" cy="265" r="4" fill="#fff" stroke="#ef4444" stroke-width="2"/>
  <circle cx="428" cy="226" r="4" fill="#fff" stroke="#ef4444" stroke-width="2"/>
  <circle cx="498" cy="202" r="4" fill="#fff" stroke="#ef4444" stroke-width="2"/>
  <circle cx="569" cy="168" r="4" fill="#fff" stroke="#ef4444" stroke-width="2"/>
  <circle cx="639" cy="140" r="4" fill="#fff" stroke="#ef4444" stroke-width="2"/>
  <circle cx="710" cy="114" r="4" fill="#fff" stroke="#ef4444" stroke-width="2"/>
  <circle cx="780" cy="109" r="4" fill="#fff" stroke="#ef4444" stroke-width="2"/>

  <!-- +15.1% improvement badge -->
  <line x1="790" y1="77" x2="790" y2="109" stroke="#16a34a" stroke-width="1.5"/>
  <line x1="786" y1="77" x2="794" y2="77" stroke="#16a34a" stroke-width="1.5"/>
  <line x1="786" y1="109" x2="794" y2="109" stroke="#16a34a" stroke-width="1.5"/>
  <rect x="796" y="82" width="52" height="20" rx="4" fill="#dcfce7" stroke="#16a34a" stroke-width="1"/>
  <text x="822" y="96" text-anchor="middle" font-size="11" font-weight="700" fill="#15803d">+15.1%</text>

  <!-- Plot border -->
  <rect x="75" y="70" width="705" height="365" fill="none" stroke="#cbd5e1" stroke-width="1" rx="4"/>

  <!-- Title -->
  <text x="428" y="32" text-anchor="middle" font-size="15" font-weight="700" fill="#0f172a">Aerodynamic Efficiency (L/D) vs. Angle of Attack</text>
  <text x="428" y="52" text-anchor="middle" font-size="12" fill="#64748b">Morphed vs. Conventional NACA 4412  ·  Re = 2.53 × 10⁵</text>

  <!-- X axis -->
  <line x1="75" y1="435" x2="780" y2="435" stroke="#475569" stroke-width="1.2"/>
  <text x="75"  y="453" text-anchor="middle" font-size="11" fill="#64748b">-5</text>
  <text x="146" y="453" text-anchor="middle" font-size="11" fill="#64748b">-4</text>
  <text x="216" y="453" text-anchor="middle" font-size="11" fill="#64748b">-3</text>
  <text x="287" y="453" text-anchor="middle" font-size="11" fill="#64748b">-2</text>
  <text x="357" y="453" text-anchor="middle" font-size="11" fill="#64748b">-1</text>
  <text x="428" y="453" text-anchor="middle" font-size="11" fill="#64748b">0</text>
  <text x="498" y="453" text-anchor="middle" font-size="11" fill="#64748b">+1</text>
  <text x="569" y="453" text-anchor="middle" font-size="11" fill="#64748b">+2</text>
  <text x="639" y="453" text-anchor="middle" font-size="11" fill="#64748b">+3</text>
  <text x="710" y="453" text-anchor="middle" font-size="11" fill="#64748b">+4</text>
  <text x="780" y="453" text-anchor="middle" font-size="11" fill="#64748b">+5</text>
  <text x="428" y="480" text-anchor="middle" font-size="13" font-weight="600" fill="#475569">Angle of Attack (°)</text>

  <!-- Y axis -->
  <line x1="75" y1="70" x2="75" y2="435" stroke="#475569" stroke-width="1.2"/>
  <text x="63" y="426" text-anchor="end" font-size="11" fill="#64748b">-40</text>
  <text x="63" y="374" text-anchor="end" font-size="11" fill="#64748b">-20</text>
  <text x="63" y="322" text-anchor="end" font-size="11" fill="#64748b">0</text>
  <text x="63" y="270" text-anchor="end" font-size="11" fill="#64748b">20</text>
  <text x="63" y="217" text-anchor="end" font-size="11" fill="#64748b">40</text>
  <text x="63" y="165" text-anchor="end" font-size="11" fill="#64748b">60</text>
  <text x="63" y="113" text-anchor="end" font-size="11" fill="#64748b">80</text>
  <text transform="translate(18,252) rotate(-90)" text-anchor="middle" font-size="13" font-weight="600" fill="#475569">L/D Ratio</text>

  <!-- Legend -->
  <rect x="90" y="84" width="195" height="52" rx="6" fill="#ffffff" stroke="#e2e8f0" stroke-width="1"/>
  <line x1="102" y1="105" x2="130" y2="105" stroke="#2563eb" stroke-width="2.5"/>
  <circle cx="116" cy="105" r="4" fill="#2563eb" stroke="#fff" stroke-width="1.5"/>
  <text x="136" y="109" font-size="12" fill="#0f172a">Morphed NACA 4412</text>
  <line x1="102" y1="125" x2="130" y2="125" stroke="#ef4444" stroke-width="2" stroke-dasharray="8,5"/>
  <circle cx="116" cy="125" r="4" fill="#fff" stroke="#ef4444" stroke-width="2"/>
  <text x="136" y="129" font-size="12" fill="#0f172a">Conventional NACA 4412</text>

</svg>
